# xmcd
#
# Track frame offsets: 
#        150
#        19117
#        45287
#        62497
#        83997
#        94860
#        120550
#        137215
#        161140
#        179212
#
# Disc length: 2621 seconds
#
# Revision: 1
# Processed by: cddbd v1.5.2PL0 Copyright (c) Steve Scherf et al.
# Submitted via: ExactAudioCopyFreeDBPlugin 1.0
#
DISCID=840a3b0a
DTITLE=服部克久 - 音楽畑 2 Juicy and Crispy
DYEAR=1985
DGENRE=Easy Listening
TTITLE0=山
TTITLE1=SECRETS
TTITLE2=風
TTITLE3=水
TTITLE4=びっくりポルカ
TTITLE5=じゃぽにか
TTITLE6=太陽海岸
TTITLE7=恋の守護神
TTITLE8=HAPPY COAT
TTITLE9=FINAL
EXTD=YEAR: 1985
EXTT0=
EXTT1=
EXTT2=
EXTT3=
EXTT4=
EXTT5=
EXTT6=
EXTT7=
EXTT8=
EXTT9=
PLAYORDER=
